# xmcd CD database file
#
# Track frame offsets:
#	150
#	13716
#	33705
#	51405
#	69568
#	84002
#	103926
#	116172
#	132720
#	148486
#	165471
#
# Disc length: 2426 seconds
#
# Revision: 0
# Processed by: cddbd v1.5.2PL0 Copyright (c) Steve Scherf et al.
# Submitted via: CDex 1.51
#
DISCID=a509780b
DTITLE=Various Artist - CDX 489
DYEAR=2009
DGENRE=Country
TTITLE0=Luke Bryan - Rain Is a Good Thing 
TTITLE1=Carrie Underwood - Temporary Home 
TTITLE2=Darryl Worley - Best of Both Worlds 
TTITLE3=Steve Azar - Sunshine 
TTITLE4=Or, The Whale - Datura 
TTITLE5=Rodrigo Haddad - From Brazil To Tennessee 
TTITLE6=Pat Garrett - Happy New Year Baby 
TTITLE7=Joanna Mosca - Keep On Going 
TTITLE8=Jimmy Eugene - Savin' It Up For Saturday Night 
TTITLE9=Michael Owen Miller - Sometimes Life Gets In The Way 
TTITLE10=Brent Lonker - Tuff 
EXTD=YEAR: 2009
EXTT0=
EXTT1=
EXTT2=
EXTT3=
EXTT4=
EXTT5=
EXTT6=
EXTT7=
EXTT8=
EXTT9=
EXTT10=
PLAYORDER=
